<svg width="105" height="21" viewBox="0 0 105 21" fill="none" xmlns="http://www.w3.org/2000/svg">
<path d="M11.4322 5.48C11.4322 6.29333 11.2455 7.04 10.8722 7.72C10.4989 8.38667 9.92552 8.92667 9.15219 9.34C8.37885 9.75333 7.41885 9.96 6.27219 9.96H4.15219V15H0.732188V0.96H6.27219C7.39219 0.96 8.33885 1.15333 9.11219 1.54C9.88552 1.92667 10.4655 2.46 10.8522 3.14C11.2389 3.82 11.4322 4.6 11.4322 5.48ZM6.01219 7.24C6.66552 7.24 7.15219 7.08667 7.47219 6.78C7.79219 6.47333 7.95219 6.04 7.95219 5.48C7.95219 4.92 7.79219 4.48667 7.47219 4.18C7.15219 3.87333 6.66552 3.72 6.01219 3.72H4.15219V7.24H6.01219ZM17.7527 15.16C16.7793 15.16 15.9127 14.9933 15.1527 14.66C14.3927 14.3267 13.7927 13.8733 13.3527 13.3C12.9127 12.7133 12.666 12.06 12.6127 11.34H15.9927C16.0327 11.7267 16.2127 12.04 16.5327 12.28C16.8527 12.52 17.246 12.64 17.7127 12.64C18.1393 12.64 18.466 12.56 18.6927 12.4C18.9327 12.2267 19.0527 12.0067 19.0527 11.74C19.0527 11.42 18.886 11.1867 18.5527 11.04C18.2193 10.88 17.6793 10.7067 16.9327 10.52C16.1327 10.3333 15.466 10.14 14.9327 9.94C14.3993 9.72667 13.9393 9.4 13.5527 8.96C13.166 8.50667 12.9727 7.9 12.9727 7.14C12.9727 6.5 13.146 5.92 13.4927 5.4C13.8527 4.86667 14.3727 4.44667 15.0527 4.14C15.746 3.83333 16.566 3.68 17.5127 3.68C18.9127 3.68 20.0127 4.02667 20.8127 4.72C21.626 5.41333 22.0927 6.33333 22.2127 7.48H19.0527C18.9993 7.09333 18.826 6.78667 18.5327 6.56C18.2527 6.33333 17.8793 6.22 17.4127 6.22C17.0127 6.22 16.706 6.3 16.4927 6.46C16.2793 6.60667 16.1727 6.81333 16.1727 7.08C16.1727 7.4 16.3393 7.64 16.6727 7.8C17.0193 7.96 17.5527 8.12 18.2727 8.28C19.0993 8.49333 19.7727 8.70667 20.2927 8.92C20.8127 9.12 21.266 9.45333 21.6527 9.92C22.0527 10.3733 22.2593 10.9867 22.2727 11.76C22.2727 12.4133 22.086 13 21.7127 13.52C21.3527 14.0267 20.826 14.4267 20.1327 14.72C19.4527 15.0133 18.6593 15.16 17.7527 15.16ZM35.765 3.84L28.765 20.3H25.085L27.645 14.62L23.105 3.84H26.925L29.505 10.82L32.065 3.84H35.765ZM36.3217 9.42C36.3217 8.26 36.5551 7.24667 37.0217 6.38C37.5017 5.51333 38.1617 4.84667 39.0017 4.38C39.8551 3.91333 40.8284 3.68 41.9217 3.68C43.3217 3.68 44.4884 4.04667 45.4217 4.78C46.3684 5.51333 46.9884 6.54667 47.2817 7.88H43.6417C43.3351 7.02667 42.7417 6.6 41.8617 6.6C41.2351 6.6 40.7351 6.84667 40.3617 7.34C39.9884 7.82 39.8017 8.51333 39.8017 9.42C39.8017 10.3267 39.9884 11.0267 40.3617 11.52C40.7351 12 41.2351 12.24 41.8617 12.24C42.7417 12.24 43.3351 11.8133 43.6417 10.96H47.2817C46.9884 12.2667 46.3684 13.2933 45.4217 14.04C44.4751 14.7867 43.3084 15.16 41.9217 15.16C40.8284 15.16 39.8551 14.9267 39.0017 14.46C38.1617 13.9933 37.5017 13.3267 37.0217 12.46C36.5551 11.5933 36.3217 10.58 36.3217 9.42ZM55.9711 3.72C57.2511 3.72 58.2778 4.14667 59.0511 5C59.8244 5.84 60.2111 7 60.2111 8.48V15H56.8111V8.94C56.8111 8.19333 56.6178 7.61333 56.2311 7.2C55.8444 6.78667 55.3244 6.58 54.6711 6.58C54.0178 6.58 53.4978 6.78667 53.1111 7.2C52.7244 7.61333 52.5311 8.19333 52.5311 8.94V15H49.1111V0.2H52.5311V5.34C52.8778 4.84667 53.3511 4.45333 53.9511 4.16C54.5511 3.86667 55.2244 3.72 55.9711 3.72ZM67.6677 15.16C66.5743 15.16 65.5877 14.9267 64.7077 14.46C63.841 13.9933 63.1543 13.3267 62.6477 12.46C62.1543 11.5933 61.9077 10.58 61.9077 9.42C61.9077 8.27333 62.161 7.26667 62.6677 6.4C63.1743 5.52 63.8677 4.84667 64.7477 4.38C65.6277 3.91333 66.6143 3.68 67.7077 3.68C68.801 3.68 69.7877 3.91333 70.6677 4.38C71.5477 4.84667 72.241 5.52 72.7477 6.4C73.2543 7.26667 73.5077 8.27333 73.5077 9.42C73.5077 10.5667 73.2477 11.58 72.7277 12.46C72.221 13.3267 71.521 13.9933 70.6277 14.46C69.7477 14.9267 68.761 15.16 67.6677 15.16ZM67.6677 12.2C68.321 12.2 68.8743 11.96 69.3277 11.48C69.7943 11 70.0277 10.3133 70.0277 9.42C70.0277 8.52667 69.801 7.84 69.3477 7.36C68.9077 6.88 68.361 6.64 67.7077 6.64C67.041 6.64 66.4877 6.88 66.0477 7.36C65.6077 7.82667 65.3877 8.51333 65.3877 9.42C65.3877 10.3133 65.601 11 66.0277 11.48C66.4677 11.96 67.0143 12.2 67.6677 12.2Z" fill="white"/>
<path d="M84.062 12.52H78.822L77.982 15H74.402L79.482 0.96H83.442L88.522 15H84.902L84.062 12.52ZM83.182 9.88L81.442 4.74L79.722 9.88H83.182ZM93.4881 5.7C93.8881 5.08667 94.3881 4.60667 94.9881 4.26C95.5881 3.9 96.2548 3.72 96.9881 3.72V7.34H96.0481C95.1948 7.34 94.5548 7.52667 94.1281 7.9C93.7015 8.26 93.4881 8.9 93.4881 9.82V15H90.0681V3.84H93.4881V5.7ZM104.843 12.1V15H103.103C101.863 15 100.896 14.7 100.203 14.1C99.5095 13.4867 99.1628 12.4933 99.1628 11.12V6.68H97.8028V3.84H99.1628V1.12H102.583V3.84H104.823V6.68H102.583V11.16C102.583 11.4933 102.663 11.7333 102.823 11.88C102.983 12.0267 103.249 12.1 103.623 12.1H104.843Z" fill="url(#paint0_linear_1_366)"/>
<defs>
<linearGradient id="paint0_linear_1_366" x1="89.95" y1="-7" x2="81.9714" y2="35.1588" gradientUnits="userSpaceOnUse">
<stop stop-color="#B75CFF"/>
<stop offset="1" stop-color="#671AE4"/>
</linearGradient>
</defs>
</svg>
